<svg width="250" height="250" viewBox="0 0 250 250" fill="none" xmlns="http://www.w3.org/2000/svg">
<path d="M28.8 126.082L42.7825 112.1H159.7V28.8H28.8V126.082ZM5 183.5V28.8C5 22.255 7.33042 16.6521 11.9913 11.9913C16.6521 7.33042 22.255 5 28.8 5H159.7C166.245 5 171.848 7.33042 176.509 11.9913C181.17 16.6521 183.5 22.255 183.5 28.8V112.1C183.5 118.645 181.17 124.248 176.509 128.909C171.848 133.57 166.245 135.9 159.7 135.9H52.6L5 183.5Z" fill="#027BFF"/>
<path d="M28.8 126.082L42.7825 112.1H159.7V28.8H28.8V126.082ZM5 183.5V28.8C5 22.255 7.33042 16.6521 11.9913 11.9913C16.6521 7.33042 22.255 5 28.8 5H159.7C166.245 5 171.848 7.33042 176.509 11.9913C181.17 16.6521 183.5 22.255 183.5 28.8V112.1C183.5 118.645 181.17 124.248 176.509 128.909C171.848 133.57 166.245 135.9 159.7 135.9H52.6L5 183.5Z" fill="#ABD1B5"/>
<path d="M245.4 245.4L197.8 197.8H78.8C72.255 197.8 66.6521 195.47 61.9912 190.809C57.3304 186.148 55 180.545 55 174V162.1H185.9C192.445 162.1 198.048 159.77 202.709 155.109C207.37 150.448 209.7 144.845 209.7 138.3V55H221.6C228.145 55 233.748 57.3304 238.409 61.9912C243.07 66.6521 245.4 72.255 245.4 78.8V245.4Z" fill="#517860"/>
</svg>
